# xmcd CD database file
#
# Track frame offsets:
#	182
#	17192
#	35992
#	57960
#	81505
#	102215
#	119192
#	136640
#	154160
#	174505
#	198092
#	214265
#
# Disc length: 3074 seconds
#
# Revision: 0
# Processed by: cddbd v1.5.2PL0 Copyright (c) Steve Scherf et al.
# Submitted via: CDex 1.70beta2
#
DISCID=ac0c000c
DTITLE=Compilation SAXO - Saxo suite CD 1
DYEAR=1991
DGENRE=Jazz
TTITLE0=I can't touch you now
TTITLE1=Take my breath away
TTITLE2=Nuages
TTITLE3=Concerto d'Aranjuez
TTITLE4=In the mood
TTITLE5=The summer knows
TTITLE6=Pink panther
TTITLE7=Europa
TTITLE8=Just a gigolo
TTITLE9=Words
TTITLE10=Young ladies menuet
TTITLE11=Red stone fire
EXTD=YEAR: 1991
EXTT0=
EXTT1=
EXTT2=
EXTT3=
EXTT4=
EXTT5=
EXTT6=
EXTT7=
EXTT8=
EXTT9=
EXTT10=
EXTT11=
PLAYORDER=
